<?xml version="1.0" encoding="utf-8"?>

<!DOCTYPE svg PUBLIC "-//W3C//DTD SVG 1.1//EN" "http://www.w3.org/Graphics/SVG/1.1/DTD/svg11.dtd">
<svg version="1.1" id="Layer_1" xmlns="http://www.w3.org/2000/svg" xmlns:xlink="http://www.w3.org/1999/xlink" x="0px" y="0px"
	 viewBox="0 0 1766.811 1681.361" enable-background="new 0 0 1766.811 1681.361" xml:space="preserve">
<g>
	<polygon stroke="#000000" stroke-width="20.1715" stroke-linejoin="round" stroke-miterlimit="10" points="883.405,40.681 
		1081.979,651.826 1724.575,651.826 1204.704,1029.535 1403.277,1640.681 883.405,1262.972 363.534,1640.681 562.107,1029.535 
		42.236,651.826 684.832,651.826 	"/>
	<circle fill="#FFFFFF" cx="883.405" cy="922.113" r="52.948"/>
	<g>
		<g>
			<g>
				<path fill="#FFFFFF" d="M1724.571,661.914c-0.65,0-1.32-0.07-1.97-0.2c-0.641-0.13-1.271-0.32-1.88-0.57
					c-0.61-0.26-1.2-0.57-1.74-0.93c-0.561-0.37-1.07-0.79-1.54-1.25c-0.46-0.47-0.88-0.99-1.25-1.54
					c-0.36-0.55-0.68-1.13-0.93-1.74c-0.25-0.61-0.44-1.24-0.57-1.89c-0.14-0.65-0.2-1.31-0.2-1.97s0.061-1.32,0.2-1.97
					c0.13-0.64,0.32-1.28,0.57-1.89c0.25-0.6,0.569-1.19,0.93-1.74c0.37-0.55,0.79-1.06,1.25-1.53c0.47-0.46,0.979-0.89,1.54-1.25
					c0.54-0.37,1.13-0.68,1.74-0.93c0.609-0.25,1.239-0.45,1.88-0.58c3.279-0.66,6.77,0.42,9.109,2.76
					c0.46,0.47,0.881,0.98,1.25,1.53c0.36,0.55,0.681,1.14,0.931,1.74c0.25,0.61,0.439,1.25,0.569,1.89
					c0.131,0.65,0.2,1.31,0.2,1.97s-0.069,1.32-0.2,1.97c-0.13,0.65-0.319,1.28-0.569,1.89c-0.25,0.61-0.57,1.19-0.931,1.74
					c-0.369,0.55-0.79,1.07-1.25,1.54C1729.83,660.834,1727.231,661.914,1724.571,661.914z"/>
			</g>
			<g>
				<path fill="#FFFFFF" d="M950.271,900.624c-1.7-5.3,1.22-10.98,6.52-12.69l0,0c5.3-1.7,10.98,1.22,12.69,6.521l0,0
					c1.7,5.3-1.22,10.979-6.52,12.689l0,0c-1.03,0.33-2.06,0.49-3.09,0.49l0,0C955.611,907.634,951.651,904.904,950.271,900.624z
					 M1026.74,876.054c-1.7-5.3,1.21-10.979,6.521-12.689l0,0c5.3-1.7,10.979,1.22,12.689,6.52l0,0c1.7,5.3-1.22,10.98-6.52,12.69
					l0,0c-1.03,0.329-2.07,0.479-3.09,0.479l0,0C1032.08,883.054,1028.12,880.334,1026.74,876.054z M1103.21,851.484
					c-1.699-5.3,1.221-10.979,6.521-12.689l0,0c5.3-1.7,10.979,1.21,12.68,6.52l0,0c1.71,5.3-1.21,10.98-6.51,12.69l0,0
					c-1.03,0.33-2.07,0.479-3.09,0.479l0,0C1108.551,858.484,1104.591,855.764,1103.21,851.484z M1179.681,826.914
					c-1.7-5.31,1.21-10.98,6.52-12.69l0,0c5.3-1.7,10.98,1.21,12.68,6.52l0,0c1.711,5.3-1.21,10.98-6.51,12.68l0,0
					c-1.029,0.33-2.069,0.49-3.09,0.49l0,0C1185.021,833.914,1181.061,831.194,1179.681,826.914z M1256.151,802.344
					c-1.7-5.31,1.21-10.99,6.52-12.69l0,0c5.301-1.71,10.98,1.21,12.69,6.52l0,0c1.7,5.3-1.22,10.98-6.52,12.68l0,0
					c-1.03,0.33-2.07,0.49-3.091,0.49l0,0C1261.49,809.344,1257.521,806.614,1256.151,802.344z M1332.62,777.774
					c-1.7-5.31,1.21-10.99,6.521-12.69l0,0c5.3-1.71,10.979,1.21,12.68,6.51l0,0c1.71,5.31-1.21,10.99-6.51,12.69l0,0
					c-1.03,0.33-2.07,0.49-3.09,0.49l0,0C1337.96,784.774,1334,782.044,1332.62,777.774z M1409.091,753.194
					c-1.7-5.3,1.22-10.98,6.52-12.69l0,0c5.3-1.7,10.98,1.22,12.69,6.52l0,0c1.699,5.3-1.221,10.99-6.521,12.69l0,0
					c-1.03,0.33-2.07,0.49-3.09,0.49l0,0C1414.431,760.204,1410.46,757.474,1409.091,753.194z M1485.561,728.624
					c-1.7-5.3,1.22-10.98,6.52-12.69l0,0c5.3-1.7,10.98,1.22,12.681,6.52l0,0c1.71,5.3-1.21,10.98-6.511,12.69l0,0
					c-1.029,0.33-2.069,0.49-3.09,0.49l0,0C1490.901,735.634,1486.941,732.904,1485.561,728.624z M1562.031,704.054
					c-1.7-5.3,1.21-10.98,6.521-12.69l0,0c5.3-1.7,10.979,1.22,12.689,6.52l0,0c1.7,5.3-1.22,10.98-6.52,12.69l0,0
					c-1.03,0.33-2.07,0.48-3.091,0.48l0,0C1567.37,711.054,1563.41,708.334,1562.031,704.054z M1638.5,679.484
					c-1.699-5.3,1.221-10.98,6.521-12.69l0,0c5.3-1.7,10.979,1.21,12.689,6.52l0,0c1.7,5.3-1.22,10.98-6.52,12.69l0,0
					c-1.03,0.33-2.07,0.48-3.09,0.48l0,0C1643.841,686.484,1639.88,683.764,1638.5,679.484z"/>
			</g>
			<g>
				<path fill="#FFFFFF" d="M883.401,932.204c-0.65,0-1.32-0.07-1.97-0.2c-0.64-0.13-1.27-0.33-1.88-0.58s-1.2-0.56-1.74-0.93
					c-0.56-0.36-1.07-0.78-1.54-1.25c-0.46-0.46-0.88-0.98-1.25-1.53c-0.36-0.55-0.68-1.13-0.93-1.74
					c-0.25-0.609-0.44-1.25-0.57-1.89c-0.13-0.65-0.2-1.311-0.2-1.97c0-0.66,0.07-1.32,0.2-1.971c0.13-0.64,0.32-1.279,0.57-1.89
					s0.57-1.19,0.93-1.74c0.37-0.55,0.79-1.07,1.25-1.53c2.34-2.34,5.83-3.42,9.11-2.76c0.64,0.13,1.27,0.32,1.88,0.58
					c0.61,0.25,1.2,0.561,1.74,0.92c0.56,0.37,1.07,0.79,1.54,1.26c0.46,0.46,0.88,0.98,1.25,1.53c0.36,0.55,0.68,1.13,0.93,1.74
					s0.44,1.24,0.57,1.89c0.13,0.65,0.2,1.311,0.2,1.971c0,0.659-0.07,1.319-0.2,1.97c-0.13,0.64-0.32,1.28-0.57,1.89
					c-0.26,0.61-0.57,1.19-0.93,1.74c-0.37,0.55-0.79,1.07-1.25,1.53C888.66,931.124,886.061,932.204,883.401,932.204z"/>
			</g>
			<g>
				<path fill="#FFFFFF" d="M873.321,841.984c0-5.57,4.52-10.09,10.08-10.09l0,0c5.57,0,10.09,4.52,10.09,10.09l0,0
					c0,5.57-4.52,10.08-10.09,10.08l0,0C877.841,852.064,873.321,847.554,873.321,841.984z M873.321,761.854
					c0-5.57,4.52-10.09,10.08-10.09l0,0c5.57,0,10.09,4.52,10.09,10.09l0,0c0,5.57-4.52,10.08-10.09,10.08l0,0
					C877.841,771.934,873.321,767.424,873.321,761.854z M873.321,681.724c0-5.57,4.52-10.09,10.08-10.09l0,0
					c5.57,0,10.09,4.52,10.09,10.09l0,0c0,5.57-4.52,10.08-10.09,10.08l0,0C877.841,691.804,873.321,687.294,873.321,681.724z
					 M873.321,601.594c0-5.57,4.52-10.09,10.08-10.09l0,0c5.57,0,10.09,4.52,10.09,10.09l0,0c0,5.57-4.52,10.08-10.09,10.08l0,0
					C877.841,611.674,873.321,607.164,873.321,601.594z M873.321,521.464c0-5.57,4.52-10.09,10.08-10.09l0,0
					c5.57,0,10.09,4.52,10.09,10.09l0,0c0,5.57-4.52,10.08-10.09,10.08l0,0C877.841,531.544,873.321,527.034,873.321,521.464z
					 M873.321,441.334c0-5.57,4.52-10.09,10.08-10.09l0,0c5.57,0,10.09,4.52,10.09,10.09l0,0c0,5.57-4.52,10.08-10.09,10.08l0,0
					C877.841,451.414,873.321,446.904,873.321,441.334z M873.321,361.204c0-5.57,4.52-10.09,10.08-10.09l0,0
					c5.57,0,10.09,4.52,10.09,10.09l0,0c0,5.57-4.52,10.08-10.09,10.08l0,0C877.841,371.284,873.321,366.774,873.321,361.204z
					 M873.321,281.074c0-5.57,4.52-10.09,10.08-10.09l0,0c5.57,0,10.09,4.52,10.09,10.09l0,0c0,5.57-4.52,10.08-10.09,10.08l0,0
					C877.841,291.154,873.321,286.644,873.321,281.074z M873.321,200.944c0-5.57,4.52-10.09,10.08-10.09l0,0
					c5.57,0,10.09,4.52,10.09,10.09l0,0c0,5.57-4.52,10.08-10.09,10.08l0,0C877.841,211.024,873.321,206.514,873.321,200.944z
					 M873.321,120.814c0-5.57,4.52-10.09,10.08-10.09l0,0c5.57,0,10.09,4.52,10.09,10.09l0,0c0,5.57-4.52,10.08-10.09,10.08l0,0
					C877.841,130.894,873.321,126.384,873.321,120.814z"/>
			</g>
			<g>
				<path fill="#FFFFFF" d="M883.401,50.764c-0.65,0-1.32-0.06-1.97-0.2c-0.64-0.13-1.27-0.32-1.88-0.57s-1.2-0.56-1.74-0.93
					c-0.56-0.37-1.07-0.79-1.54-1.25c-0.46-0.47-0.88-0.98-1.25-1.53c-0.36-0.55-0.68-1.14-0.93-1.75c-0.25-0.6-0.44-1.24-0.57-1.88
					c-0.13-0.65-0.2-1.32-0.2-1.97c0-0.66,0.07-1.32,0.2-1.97c0.13-0.65,0.32-1.28,0.57-1.89s0.57-1.2,0.93-1.74
					c0.37-0.55,0.79-1.07,1.25-1.54c1.88-1.87,4.48-2.95,7.13-2.95c2.66,0,5.26,1.08,7.14,2.95c0.46,0.47,0.88,0.99,1.25,1.54
					c0.36,0.54,0.68,1.13,0.93,1.74s0.44,1.24,0.57,1.89c0.13,0.65,0.2,1.31,0.2,1.97c0,0.65-0.07,1.32-0.2,1.97
					c-0.13,0.64-0.32,1.28-0.57,1.88c-0.25,0.61-0.57,1.2-0.93,1.75c-0.37,0.55-0.79,1.06-1.25,1.53c-0.47,0.46-0.98,0.88-1.54,1.25
					c-0.54,0.37-1.13,0.68-1.74,0.93c-0.61,0.25-1.24,0.44-1.89,0.57C884.72,50.704,884.061,50.764,883.401,50.764z"/>
			</g>
		</g>
		<g>
			<g>
				<path fill="#FFFFFF" d="M42.231,661.914c-2.65,0-5.25-1.08-7.13-2.96c-1.87-1.87-2.95-4.47-2.95-7.13c0-0.65,0.07-1.32,0.2-1.97
					c0.13-0.64,0.32-1.28,0.57-1.88c0.25-0.61,0.57-1.2,0.93-1.75c0.37-0.55,0.79-1.06,1.25-1.53c2.35-2.34,5.83-3.42,9.11-2.76
					c0.64,0.13,1.27,0.33,1.88,0.58s1.2,0.56,1.74,0.93c0.56,0.36,1.07,0.79,1.54,1.25c0.46,0.47,0.88,0.98,1.25,1.53
					c0.36,0.55,0.68,1.14,0.93,1.75c0.25,0.6,0.44,1.24,0.57,1.88c0.13,0.65,0.2,1.32,0.2,1.97c0,0.66-0.07,1.32-0.2,1.97
					c-0.13,0.65-0.32,1.28-0.57,1.89c-0.25,0.61-0.57,1.19-0.93,1.74c-0.37,0.55-0.79,1.07-1.25,1.53
					c-0.47,0.47-0.98,0.89-1.54,1.26c-0.54,0.36-1.13,0.67-1.74,0.93c-0.61,0.25-1.24,0.44-1.88,0.57
					C43.561,661.844,42.891,661.914,42.231,661.914z"/>
			</g>
			<g>
				<path fill="#FFFFFF" d="M803.851,907.144c-5.3-1.71-8.22-7.39-6.52-12.689l0,0c1.71-5.301,7.39-8.221,12.69-6.521l0,0
					c5.3,1.71,8.22,7.391,6.52,12.69l0,0c-1.38,4.279-5.34,7.01-9.6,7.01l0,0C805.91,907.634,804.871,907.474,803.851,907.144z
					 M727.381,882.575c-5.3-1.71-8.22-7.391-6.52-12.69l0,0c1.71-5.3,7.39-8.22,12.69-6.52l0,0c5.3,1.71,8.22,7.39,6.52,12.689l0,0
					c-1.38,4.28-5.34,7-9.6,7l0,0C729.441,883.054,728.401,882.904,727.381,882.575z M650.91,857.995c-5.3-1.7-8.22-7.38-6.52-12.68
					l0,0c1.71-5.3,7.39-8.22,12.69-6.52l0,0c5.3,1.71,8.22,7.39,6.52,12.689l0,0c-1.38,4.28-5.34,7-9.6,7l0,0
					C652.97,858.484,651.941,858.325,650.91,857.995z M574.441,833.424c-5.3-1.7-8.22-7.38-6.52-12.68l0,0
					c1.71-5.31,7.39-8.22,12.69-6.52l0,0c5.3,1.7,8.22,7.38,6.52,12.69l0,0c-1.38,4.27-5.34,7-9.6,7l0,0
					C576.501,833.914,575.461,833.754,574.441,833.424z M497.97,808.854c-5.3-1.7-8.22-7.38-6.52-12.68l0,0
					c1.71-5.31,7.39-8.22,12.69-6.52l0,0c5.3,1.7,8.22,7.38,6.52,12.69l0,0c-1.38,4.27-5.34,7-9.6,7l0,0
					C500.031,809.344,498.99,809.184,497.97,808.854z M421.501,784.284c-5.3-1.7-8.22-7.38-6.52-12.68l0,0
					c1.71-5.31,7.39-8.23,12.69-6.52l0,0c5.3,1.7,8.22,7.38,6.52,12.69l0,0c-1.38,4.27-5.34,7-9.6,7l0,0
					C423.561,784.774,422.521,784.614,421.501,784.284z M345.031,759.714c-5.3-1.7-8.22-7.38-6.52-12.69l0,0
					c1.71-5.3,7.39-8.22,12.69-6.52l0,0c5.3,1.71,8.22,7.39,6.52,12.69l0,0c-1.38,4.28-5.34,7.01-9.6,7.01l0,0
					C347.091,760.204,346.051,760.044,345.031,759.714z M268.561,735.144c-5.3-1.71-8.22-7.39-6.52-12.69l0,0
					c1.71-5.3,7.39-8.22,12.69-6.52l0,0c5.3,1.71,8.22,7.39,6.52,12.69l0,0c-1.38,4.28-5.34,7-9.6,7l0,0
					C270.621,735.624,269.581,735.474,268.561,735.144z M192.091,710.574c-5.3-1.71-8.22-7.39-6.52-12.69l0,0
					c1.71-5.3,7.39-8.22,12.69-6.52l0,0c5.3,1.71,8.22,7.39,6.52,12.69l0,0c-1.38,4.28-5.34,7-9.6,7l0,0
					C194.16,711.054,193.111,710.904,192.091,710.574z M115.621,686.004c-5.3-1.71-8.22-7.39-6.52-12.69l0,0
					c1.71-5.31,7.39-8.22,12.69-6.52l0,0c5.3,1.71,8.22,7.39,6.52,12.69l0,0c-1.38,4.28-5.34,7-9.6,7l0,0
					C117.68,686.484,116.641,686.334,115.621,686.004z"/>
			</g>
			<g>
				<path fill="#FFFFFF" d="M883.401,932.204c-0.65,0-1.32-0.07-1.97-0.2c-0.64-0.13-1.27-0.33-1.88-0.58s-1.2-0.56-1.74-0.93
					c-0.56-0.36-1.07-0.78-1.54-1.25c-0.46-0.46-0.88-0.98-1.25-1.53c-0.36-0.55-0.68-1.13-0.93-1.74
					c-0.25-0.609-0.44-1.25-0.57-1.89c-0.13-0.65-0.2-1.311-0.2-1.97c0-0.66,0.07-1.32,0.2-1.971c0.13-0.64,0.32-1.279,0.57-1.89
					s0.57-1.19,0.93-1.74c0.37-0.55,0.79-1.07,1.25-1.53c2.34-2.34,5.83-3.42,9.11-2.76c0.64,0.13,1.27,0.32,1.88,0.58
					c0.61,0.25,1.2,0.561,1.74,0.92c0.56,0.37,1.07,0.79,1.54,1.26c0.46,0.46,0.88,0.98,1.25,1.53c0.36,0.55,0.68,1.13,0.93,1.74
					s0.44,1.24,0.57,1.89c0.13,0.65,0.2,1.311,0.2,1.971c0,0.659-0.07,1.319-0.2,1.97c-0.13,0.64-0.32,1.28-0.57,1.89
					c-0.26,0.61-0.57,1.19-0.93,1.74c-0.37,0.55-0.79,1.07-1.25,1.53C888.66,931.124,886.061,932.204,883.401,932.204z"/>
			</g>
			<g>
				<path fill="#FFFFFF" d="M404.881,1583.524c-4.51-3.26-5.52-9.569-2.26-14.08l0,0c3.27-4.51,9.57-5.529,14.09-2.26l0,0
					c4.51,3.26,5.52,9.57,2.25,14.08l0,0c-1.97,2.73-5.05,4.18-8.17,4.18l0,0C408.74,1585.444,406.671,1584.814,404.881,1583.524z
					 M452.14,1518.204c-4.51-3.271-5.52-9.57-2.26-14.09l0,0c3.27-4.511,9.57-5.521,14.09-2.261l0,0
					c4.51,3.271,5.52,9.58,2.26,14.09l0,0c-1.98,2.721-5.06,4.171-8.18,4.171l0,0C456.001,1520.115,453.93,1519.495,452.14,1518.204
					z M499.401,1452.874c-4.51-3.26-5.52-9.57-2.26-14.08l0,0c3.27-4.51,9.57-5.521,14.09-2.26l0,0c4.51,3.27,5.52,9.569,2.26,14.08
					l0,0c-1.97,2.729-5.06,4.18-8.18,4.18l0,0C503.26,1454.794,501.191,1454.174,499.401,1452.874z M546.66,1387.554
					c-4.51-3.27-5.52-9.57-2.26-14.08l0,0c3.27-4.52,9.58-5.53,14.09-2.26l0,0c4.51,3.26,5.52,9.57,2.26,14.08l0,0
					c-1.97,2.729-5.06,4.18-8.18,4.18l0,0C550.521,1389.474,548.45,1388.844,546.66,1387.554z M593.93,1322.224
					c-4.52-3.26-5.53-9.56-2.26-14.08l0,0c3.26-4.51,9.57-5.52,14.08-2.26l0,0c4.51,3.27,5.52,9.57,2.26,14.08l0,0
					c-1.97,2.729-5.05,4.18-8.18,4.18l0,0C597.781,1324.144,595.711,1323.524,593.93,1322.224z M641.191,1256.904
					c-4.52-3.26-5.53-9.569-2.26-14.079l0,0c3.26-4.521,9.57-5.53,14.08-2.261l0,0c4.51,3.261,5.53,9.57,2.26,14.08l0,0
					c-1.97,2.73-5.05,4.181-8.18,4.181l0,0C645.041,1258.825,642.97,1258.194,641.191,1256.904z M688.45,1191.584
					c-4.52-3.271-5.53-9.57-2.26-14.09l0,0c3.26-4.511,9.57-5.521,14.08-2.261l0,0c4.52,3.271,5.53,9.57,2.26,14.091l0,0
					c-1.97,2.72-5.05,4.17-8.18,4.17l0,0C692.301,1193.495,690.231,1192.874,688.45,1191.584z M735.711,1126.254
					c-4.51-3.26-5.53-9.57-2.26-14.08l0,0c3.27-4.51,9.57-5.521,14.08-2.26l0,0c4.51,3.26,5.53,9.569,2.26,14.08l0,0
					c-1.97,2.729-5.05,4.18-8.18,4.18l0,0C739.561,1128.174,737.501,1127.554,735.711,1126.254z M782.97,1060.934
					c-4.51-3.26-5.52-9.569-2.26-14.08l0,0c3.27-4.52,9.57-5.529,14.08-2.26l0,0c4.52,3.26,5.53,9.57,2.26,14.08l0,0
					c-1.97,2.729-5.05,4.17-8.18,4.17l0,0C786.821,1062.844,784.76,1062.224,782.97,1060.934z M830.231,995.604
					c-4.51-3.26-5.52-9.569-2.26-14.08l0,0c3.27-4.51,9.57-5.52,14.08-2.26l0,0c4.52,3.271,5.53,9.57,2.26,14.09l0,0
					c-1.97,2.721-5.05,4.17-8.18,4.17l0,0C834.091,997.524,832.021,996.904,830.231,995.604z"/>
			</g>
			<g>
				<path fill="#FFFFFF" d="M363.531,1650.764c-0.65,0-1.32-0.06-1.97-0.2c-0.64-0.12-1.28-0.319-1.88-0.569
					c-0.61-0.25-1.2-0.57-1.74-0.931c-0.56-0.37-1.07-0.79-1.54-1.25c-1.87-1.88-2.95-4.479-2.95-7.13c0-2.66,1.08-5.26,2.95-7.13
					c0.47-0.47,0.98-0.89,1.53-1.26c0.55-0.36,1.14-0.68,1.75-0.93c0.6-0.25,1.24-0.44,1.88-0.57c1.3-0.26,2.64-0.26,3.94,0
					c0.65,0.13,1.28,0.32,1.89,0.57c0.61,0.25,1.2,0.569,1.74,0.93c0.56,0.37,1.07,0.79,1.54,1.26c1.87,1.87,2.95,4.47,2.95,7.13
					c0,2.65-1.08,5.25-2.96,7.13C368.791,1649.694,366.191,1650.764,363.531,1650.764z"/>
			</g>
		</g>
		<g>
			<g>
				<path fill="#FFFFFF" d="M883.401,932.204c-0.65,0-1.32-0.07-1.97-0.2c-0.64-0.13-1.27-0.33-1.88-0.58s-1.2-0.56-1.74-0.93
					c-0.56-0.36-1.07-0.78-1.54-1.25c-0.46-0.46-0.88-0.98-1.25-1.53c-0.36-0.55-0.68-1.13-0.93-1.74
					c-0.25-0.609-0.44-1.25-0.57-1.89c-0.13-0.65-0.2-1.311-0.2-1.97c0-0.66,0.07-1.32,0.2-1.971c0.13-0.64,0.32-1.279,0.57-1.89
					s0.57-1.19,0.93-1.74c0.37-0.55,0.79-1.07,1.25-1.53c2.34-2.34,5.83-3.42,9.11-2.76c0.64,0.13,1.27,0.32,1.88,0.58
					c0.61,0.25,1.2,0.561,1.74,0.92c0.56,0.37,1.07,0.79,1.54,1.26c0.46,0.46,0.88,0.98,1.25,1.53c0.36,0.55,0.68,1.13,0.93,1.74
					s0.44,1.24,0.57,1.89c0.13,0.65,0.2,1.311,0.2,1.971c0,0.659-0.07,1.319-0.2,1.97c-0.13,0.64-0.32,1.28-0.57,1.89
					c-0.26,0.61-0.57,1.19-0.93,1.74c-0.37,0.55-0.79,1.07-1.25,1.53C888.66,931.124,886.061,932.204,883.401,932.204z"/>
			</g>
			<g>
				<path fill="#FFFFFF" d="M1347.841,1581.264c-3.261-4.51-2.25-10.82,2.26-14.08l0,0c4.51-3.27,10.819-2.25,14.09,2.26l0,0
					c3.26,4.511,2.25,10.82-2.271,14.08l0,0c-1.779,1.29-3.85,1.92-5.899,1.92l0,0
					C1352.891,1585.444,1349.811,1583.995,1347.841,1581.264z M1300.58,1515.944c-3.26-4.51-2.25-10.819,2.261-14.09l0,0
					c4.51-3.26,10.819-2.25,14.079,2.261l0,0c3.271,4.52,2.261,10.819-2.26,14.09l0,0c-1.78,1.29-3.85,1.91-5.899,1.91l0,0
					C1305.641,1520.115,1302.551,1518.664,1300.58,1515.944z M1253.321,1450.615c-3.26-4.511-2.25-10.811,2.26-14.08l0,0
					c4.511-3.261,10.82-2.25,14.08,2.26l0,0c3.271,4.51,2.26,10.82-2.26,14.08l0,0c-1.78,1.3-3.85,1.92-5.9,1.92l0,0
					C1258.37,1454.794,1255.29,1453.344,1253.321,1450.615z M1206.061,1385.294c-3.271-4.51-2.25-10.82,2.26-14.08l0,0
					c4.51-3.271,10.82-2.26,14.08,2.26l0,0c3.27,4.51,2.26,10.811-2.26,14.08l0,0c-1.78,1.29-3.851,1.92-5.9,1.92l0,0
					C1211.111,1389.474,1208.031,1388.024,1206.061,1385.294z M1158.801,1319.964c-3.271-4.51-2.261-10.811,2.26-14.08l0,0
					c4.51-3.26,10.819-2.25,14.08,2.26l0,0c3.27,4.521,2.25,10.82-2.261,14.08l0,0c-1.789,1.3-3.85,1.92-5.899,1.92l0,0
					C1163.851,1324.144,1160.771,1322.694,1158.801,1319.964z M1111.54,1254.644c-3.27-4.51-2.26-10.819,2.261-14.08l0,0
					c4.51-3.27,10.819-2.26,14.079,2.261l0,0c3.261,4.51,2.261,10.819-2.26,14.079l0,0c-1.79,1.29-3.859,1.921-5.899,1.921l0,0
					C1116.591,1258.825,1113.511,1257.374,1111.54,1254.644z M1064.281,1189.325c-3.27-4.521-2.26-10.82,2.26-14.091l0,0
					c4.511-3.26,10.811-2.25,14.08,2.261l0,0c3.271,4.52,2.25,10.819-2.26,14.09l0,0c-1.79,1.29-3.86,1.91-5.9,1.91l0,0
					C1069.33,1193.495,1066.25,1192.044,1064.281,1189.325z M1017.011,1123.995c-3.261-4.511-2.25-10.82,2.26-14.08l0,0
					c4.52-3.261,10.82-2.25,14.09,2.26l0,0c3.26,4.51,2.25,10.82-2.26,14.08l0,0c-1.79,1.3-3.86,1.92-5.91,1.92l0,0
					C1022.071,1128.174,1018.99,1126.724,1017.011,1123.995z M969.75,1058.674c-3.26-4.51-2.25-10.82,2.261-14.08l0,0
					c4.52-3.27,10.819-2.26,14.09,2.26l0,0c3.26,4.511,2.25,10.82-2.26,14.08l0,0c-1.79,1.29-3.86,1.91-5.91,1.91l0,0
					C974.811,1062.844,971.731,1061.404,969.75,1058.674z M922.49,993.354c-3.26-4.52-2.25-10.819,2.26-14.09l0,0
					c4.52-3.26,10.82-2.25,14.09,2.26l0,0c3.26,4.511,2.25,10.82-2.26,14.08l0,0c-1.79,1.3-3.86,1.92-5.91,1.92l0,0
					C927.551,997.524,924.47,996.075,922.49,993.354z"/>
			</g>
			<g>
				<path fill="#FFFFFF" d="M1403.281,1650.764c-0.66,0-1.32-0.06-1.97-0.2c-0.65-0.12-1.28-0.319-1.891-0.569
					c-0.609-0.25-1.199-0.57-1.739-0.931c-0.561-0.37-1.07-0.79-1.54-1.25c-1.87-1.88-2.95-4.479-2.95-7.13
					c0-2.66,1.08-5.26,2.95-7.13c0.47-0.47,0.979-0.89,1.54-1.26c0.54-0.36,1.13-0.68,1.739-0.93c0.61-0.25,1.24-0.44,1.891-0.57
					c1.3-0.271,2.64-0.271,3.939,0c0.641,0.13,1.28,0.32,1.88,0.57c0.61,0.25,1.2,0.569,1.74,0.93c0.561,0.37,1.07,0.79,1.54,1.26
					c1.88,1.87,2.95,4.47,2.95,7.13c0,2.65-1.07,5.25-2.95,7.13c-0.47,0.46-0.979,0.88-1.54,1.25c-0.54,0.36-1.13,0.681-1.74,0.931
					c-0.6,0.25-1.239,0.449-1.88,0.569C1404.601,1650.704,1403.931,1650.764,1403.281,1650.764z"/>
			</g>
		</g>
	</g>
</g>
</svg>
