<!DOCTYPE svg PUBLIC "-//W3C//DTD SVG 20010904//EN" "http://www.w3.org/TR/2001/REC-SVG-20010904/DTD/svg10.dtd">
<svg version="1.0" xmlns="http://www.w3.org/2000/svg" width="806px" height="744px" viewBox="0 0 8060 7440" preserveAspectRatio="xMidYMid meet">
<g id="layer1" fill="#000000" stroke="none">
 <path d="M3065 7260 c-3 -5 -13 -10 -21 -10 -8 0 -38 -17 -67 -38 -29 -20 -65 -44 -82 -52 -16 -8 -43 -23 -60 -35 -16 -12 -46 -29 -66 -38 -19 -9 -43 -25 -54 -37 -10 -11 -24 -20 -30 -20 -27 0 -72 -33 -147 -106 -43 -43 -78 -83 -78 -90 0 -7 -54 -67 -120 -132 -66 -66 -120 -124 -120 -130 0 -6 -25 -37 -55 -69 -60 -62 -85 -103 -85 -138 0 -13 -7 -28 -15 -35 -8 -7 -15 -23 -15 -36 0 -14 -4 -33 -10 -44 -5 -11 -14 -29 -20 -40 -5 -11 -10 -28 -10 -39 0 -10 -6 -24 -14 -31 -8 -6 -16 -23 -18 -38 -4 -36 -33 -40 -61 -10 -30 34 -122 98 -138 98 -8 0 -23 11 -33 25 -10 14 -25 25 -32 25 -8 0 -30 16 -50 35 -19 19 -41 35 -48 35 -7 0 -23 11 -36 25 -13 14 -31 25 -39 25 -9 0 -25 11 -35 25 -10 14 -25 25 -33 25 -8 0 -31 16 -51 35 -20 19 -42 35 -48 35 -6 0 -21 11 -34 25 -13 14 -31 25 -41 25 -10 0 -21 5 -24 10 -3 6 -34 10 -69 10 -34 0 -67 5 -72 10 -7 7 -46 10 -95 8 l-84 -3 -3 -30 c-2 -16 -8 -34 -13 -40 -5 -5 -9 -28 -9 -51 0 -35 6 -49 36 -80 21 -21 43 -48 50 -62 17 -33 133 -152 149 -152 6 0 30 -18 53 -40 22 -22 46 -40 52 -40 6 0 28 -16 48 -35 20 -19 42 -35 48 -35 5 0 25 -16 44 -35 19 -19 40 -35 47 -35 7 0 29 -16 49 -35 19 -19 41 -35 48 -35 6 0 26 -16 45 -35 18 -19 38 -35 45 -35 7 0 31 -18 54 -40 22 -22 45 -40 51 -40 17 0 71 -51 71 -67 0 -7 20 -33 45 -59 25 -25 45 -50 45 -56 0 -7 10 -22 22 -35 18 -19 20 -28 12 -55 -8 -29 -14 -33 -48 -36 -37 -3 -99 18 -111 38 -3 6 -19 10 -35 10 -16 0 -32 5 -35 10 -3 6 -20 10 -37 10 -18 0 -45 11 -64 25 -18 14 -46 25 -63 25 -16 0 -33 5 -36 10 -3 6 -17 10 -29 10 -13 0 -29 7 -36 15 -7 8 -21 15 -31 15 -10 0 -21 5 -24 10 -3 6 -19 10 -35 10 -16 0 -32 5 -35 10 -3 6 -17 10 -29 10 -13 0 -29 7 -36 15 -7 8 -21 15 -31 15 -10 0 -21 5 -24 10 -3 6 -17 10 -29 10 -13 0 -29 7 -36 15 -7 8 -23 15 -36 15 -14 0 -32 4 -42 9 -9 5 -34 17 -54 25 -20 9 -40 21 -43 26 -3 6 -13 10 -22 10 -9 0 -31 11 -49 25 -18 14 -39 25 -48 25 -8 0 -18 5 -21 10 -16 26 -85 -4 -85 -37 0 -5 -18 -28 -40 -51 -22 -22 -40 -47 -40 -56 0 -8 -4 -18 -10 -21 -13 -8 -13 -52 0 -60 6 -3 10 -19 10 -34 0 -16 7 -34 15 -41 8 -7 15 -18 15 -25 0 -15 32 -45 48 -45 6 0 28 -16 48 -35 19 -19 41 -35 48 -35 7 0 23 -11 36 -25 13 -14 30 -25 38 -25 8 0 24 -10 36 -23 28 -32 121 -97 136 -97 7 0 26 -16 43 -35 16 -19 34 -35 39 -35 5 0 24 -11 42 -25 18 -14 37 -25 43 -25 5 0 20 -11 33 -25 13 -14 30 -25 38 -25 8 0 36 -16 62 -35 26 -19 54 -35 61 -35 8 0 23 -11 33 -25 10 -14 26 -25 35 -25 9 0 25 -11 35 -25 10 -14 27 -25 37 -25 10 0 21 -4 24 -10 3 -5 14 -10 23 -10 10 0 24 -9 32 -21 8 -12 25 -25 38 -30 17 -6 22 -16 22 -43 0 -19 5 -38 10 -41 6 -3 10 -37 10 -74 0 -49 4 -72 15 -81 8 -7 15 -18 15 -25 0 -16 -35 -8 -51 11 -6 8 -26 14 -45 14 -18 0 -36 5 -39 10 -3 6 -17 10 -29 10 -13 0 -29 7 -36 15 -7 8 -21 15 -31 15 -10 0 -21 5 -24 10 -3 6 -19 10 -35 10 -16 0 -32 5 -35 10 -3 6 -17 10 -29 10 -13 0 -29 7 -36 15 -7 8 -21 15 -31 15 -10 0 -21 5 -24 10 -3 6 -17 10 -29 10 -13 0 -29 7 -36 15 -7 8 -23 15 -36 15 -14 0 -33 5 -44 10 -11 6 -29 15 -40 20 -11 6 -28 10 -39 10 -10 0 -24 7 -31 15 -7 8 -22 15 -35 15 -24 0 -81 26 -90 41 -4 5 -59 9 -124 9 -110 0 -119 -1 -139 -23 -12 -13 -22 -28 -22 -35 0 -6 -9 -27 -20 -47 -11 -20 -20 -39 -20 -43 0 -16 57 -72 72 -72 10 0 36 -20 60 -45 24 -25 48 -45 54 -45 6 0 17 -6 23 -14 7 -8 35 -26 64 -40 29 -15 59 -31 67 -36 8 -4 31 -16 50 -24 19 -9 42 -21 50 -25 8 -5 41 -21 72 -36 32 -14 60 -30 63 -36 4 -5 18 -9 33 -10 15 0 41 -9 57 -20 17 -10 37 -21 45 -25 8 -3 24 -9 35 -14 39 -15 90 -42 140 -70 28 -16 57 -32 65 -36 8 -3 24 -9 35 -14 57 -23 157 -75 200 -106 17 -11 46 -28 65 -38 19 -9 42 -21 50 -25 8 -5 31 -16 51 -25 19 -8 43 -24 54 -36 10 -11 25 -20 34 -21 9 0 30 -9 46 -20 17 -10 39 -23 50 -28 11 -5 29 -18 39 -30 11 -11 24 -21 31 -21 6 0 34 -12 63 -26 l52 -26 0 -88 c0 -66 4 -91 15 -100 12 -10 15 -42 15 -166 0 -91 4 -155 10 -159 6 -4 10 -71 10 -169 0 -100 4 -166 11 -173 5 -5 9 -38 7 -74 l-3 -64 -251 -3 c-208 -2 -254 -5 -264 -17 -7 -8 -18 -15 -25 -15 -6 0 -20 -9 -30 -20 -10 -11 -31 -27 -47 -35 -15 -8 -41 -22 -56 -30 -16 -8 -37 -24 -47 -35 -10 -11 -26 -20 -35 -20 -10 0 -26 -11 -36 -25 -10 -14 -26 -25 -35 -25 -17 0 -49 -30 -49 -47 0 -6 -7 -16 -15 -23 -8 -7 -15 -25 -15 -41 0 -15 -4 -31 -10 -34 -5 -3 -10 -21 -10 -40 0 -19 -5 -37 -10 -40 -6 -3 -10 -17 -10 -29 0 -13 -7 -29 -15 -36 -8 -7 -15 -25 -15 -41 0 -15 -5 -31 -10 -34 -6 -3 -10 -17 -10 -29 0 -13 -7 -29 -15 -36 -21 -18 -21 -152 0 -170 11 -9 15 -35 15 -106 0 -51 4 -96 10 -99 6 -3 10 -51 10 -109 0 -80 3 -106 15 -116 11 -9 15 -35 15 -104 0 -51 4 -96 9 -101 6 -6 11 -34 13 -64 2 -33 8 -56 16 -59 7 -2 108 92 225 208 117 117 220 215 230 219 11 4 110 98 222 210 l203 203 41 -44 c22 -23 41 -48 41 -54 0 -6 11 -21 25 -34 14 -13 25 -31 25 -40 0 -9 11 -27 25 -40 14 -13 25 -29 25 -35 0 -6 16 -26 35 -45 19 -19 35 -38 35 -44 0 -5 11 -24 25 -42 14 -18 25 -37 25 -42 0 -5 16 -23 35 -39 19 -17 35 -36 35 -43 0 -7 23 -43 50 -81 28 -38 50 -73 50 -78 0 -5 14 -22 30 -38 17 -15 37 -40 44 -54 7 -14 32 -51 57 -83 24 -32 49 -67 55 -78 6 -10 20 -29 30 -41 19 -22 37 -51 60 -97 7 -14 29 -41 49 -60 19 -18 35 -39 35 -45 0 -18 37 -48 49 -40 7 4 11 55 11 134 0 102 3 131 15 141 12 10 15 42 15 167 0 149 -1 155 -25 187 -14 18 -25 40 -25 49 0 9 -4 19 -10 22 -5 3 -10 19 -10 35 0 16 -4 32 -10 35 -8 5 -22 32 -44 85 -3 8 -15 29 -25 45 -11 17 -20 40 -20 53 -1 20 -7 37 -32 82 -5 8 -18 33 -29 55 -11 22 -32 58 -45 80 -14 22 -30 49 -35 60 -13 26 -26 47 -77 121 -24 34 -43 67 -43 73 0 7 -17 35 -38 64 -20 29 -44 64 -51 79 -8 16 -18 28 -23 28 -4 0 -8 8 -8 19 0 10 -7 24 -15 31 -8 7 -15 18 -15 25 0 6 -9 20 -20 30 -51 46 -50 44 -48 600 l3 520 307 3 306 2 16 -31 c9 -18 16 -49 16 -69 0 -21 7 -43 15 -50 8 -7 15 -27 15 -46 0 -18 5 -36 10 -39 6 -3 10 -26 10 -50 0 -24 5 -47 10 -50 6 -3 10 -23 10 -44 0 -22 6 -44 15 -51 9 -7 15 -29 15 -51 0 -21 5 -41 10 -44 26 -16 6 -53 -67 -127 -43 -43 -83 -78 -90 -78 -7 0 -47 -34 -88 -75 l-75 -75 0 -95 c0 -52 4 -97 10 -100 6 -3 10 -51 10 -109 0 -87 3 -105 18 -119 10 -10 23 -17 28 -17 5 0 27 -16 49 -35 22 -19 45 -35 50 -35 6 0 29 -18 50 -40 21 -22 44 -40 51 -40 7 0 28 -16 47 -35 19 -19 41 -35 49 -35 7 0 22 -11 32 -25 13 -18 28 -25 52 -25 18 0 36 -4 39 -10 3 -5 30 -10 60 -10 30 0 57 -4 60 -10 3 -5 21 -10 39 -10 19 0 39 -7 46 -15 14 -16 75 -21 85 -6 7 12 64 41 80 41 6 0 22 11 35 25 13 14 28 25 33 25 5 0 31 16 57 35 26 19 53 35 59 35 7 0 23 7 36 16 18 12 25 25 25 50 0 18 5 36 10 39 6 3 10 24 10 45 0 21 5 42 10 45 6 3 10 23 10 44 0 22 6 44 15 51 8 7 15 27 15 45 0 40 21 83 38 77 6 -2 12 -12 12 -22 0 -10 5 -22 10 -25 6 -3 10 -14 10 -24 0 -10 11 -27 25 -37 14 -10 25 -26 25 -36 0 -9 4 -20 10 -23 5 -3 17 -21 26 -40 9 -19 20 -35 25 -35 5 0 9 -8 9 -18 0 -10 5 -23 11 -29 6 -6 16 -21 23 -34 10 -21 50 -51 86 -65 8 -3 23 -10 32 -15 10 -5 23 -9 29 -9 7 0 27 -11 45 -25 18 -14 39 -25 48 -25 8 0 18 -4 21 -10 3 -5 17 -10 29 -10 13 0 29 -7 36 -15 7 -8 27 -15 46 -15 18 0 36 -4 39 -10 3 -5 16 -10 29 -10 25 0 82 -25 91 -41 4 -5 19 -9 35 -9 16 0 32 -4 35 -10 18 -29 54 -3 186 128 l139 137 0 102 c0 57 4 105 10 108 13 8 13 229 1 253 -5 9 -17 34 -25 54 -9 20 -21 40 -26 43 -6 3 -10 18 -11 33 0 15 -9 41 -19 57 -26 41 -59 112 -74 158 -3 9 -14 17 -25 17 -11 0 -23 5 -26 10 -3 6 -23 10 -44 10 -22 0 -44 6 -51 15 -7 8 -25 15 -41 15 -15 0 -31 4 -34 10 -3 6 -24 10 -46 10 -57 0 -69 16 -69 94 0 36 -4 68 -10 71 -6 4 -10 61 -10 139 0 108 -3 136 -15 146 -12 10 -15 28 -13 69 l3 56 75 3 c41 2 79 7 84 12 6 6 90 10 192 10 149 0 184 3 194 15 9 10 32 15 76 15 59 0 65 -2 74 -24 5 -13 14 -27 19 -31 6 -3 11 -28 11 -55 0 -27 5 -52 10 -55 6 -3 10 -26 10 -50 0 -24 5 -47 10 -50 6 -3 10 -30 10 -59 0 -35 5 -58 15 -66 10 -8 15 -30 15 -61 0 -26 5 -51 10 -54 6 -3 10 -23 10 -44 0 -22 6 -44 15 -51 10 -8 15 -30 15 -61 0 -26 5 -51 10 -54 6 -3 10 -30 10 -60 0 -30 5 -57 10 -60 6 -3 10 -30 10 -59 0 -35 5 -58 15 -66 9 -7 15 -29 15 -51 0 -21 5 -41 10 -44 6 -3 10 -30 10 -59 0 -35 5 -58 15 -66 8 -7 15 -18 15 -24 0 -14 -62 -76 -75 -76 -6 0 -43 -32 -83 -70 -40 -39 -78 -70 -83 -70 -6 0 -30 -19 -54 -43 -35 -32 -45 -49 -45 -74 0 -17 -4 -35 -10 -38 -5 -3 -10 -21 -10 -39 0 -19 -7 -39 -15 -46 -9 -8 -15 -29 -15 -56 0 -23 -4 -46 -10 -49 -5 -3 -10 -28 -10 -54 0 -31 -5 -53 -15 -61 -9 -7 -15 -29 -15 -51 0 -21 -4 -41 -10 -44 -5 -3 -10 -28 -10 -55 0 -27 5 -52 10 -55 6 -3 10 -26 10 -49 0 -27 6 -48 15 -56 8 -7 15 -27 15 -46 0 -18 5 -36 10 -39 6 -3 10 -19 10 -34 0 -16 7 -34 15 -41 9 -7 15 -29 15 -51 0 -21 5 -41 10 -44 6 -3 10 -26 10 -50 0 -24 5 -47 10 -50 6 -3 10 -23 10 -44 0 -22 6 -44 15 -51 8 -7 15 -18 15 -24 0 -7 11 -23 25 -36 14 -13 25 -29 25 -37 0 -7 20 -33 45 -59 25 -25 45 -51 45 -58 0 -7 22 -35 50 -62 27 -27 50 -54 50 -61 0 -6 16 -28 35 -47 19 -20 35 -42 35 -49 0 -7 23 -35 50 -62 28 -27 50 -55 50 -61 0 -18 78 -94 97 -94 9 0 31 -11 49 -25 18 -14 37 -25 42 -25 17 0 69 -30 87 -50 10 -11 25 -20 34 -21 9 0 30 -9 46 -20 17 -10 37 -21 45 -25 8 -3 23 -10 33 -15 10 -5 22 -7 27 -4 13 8 13 72 0 80 -5 3 -10 26 -10 49 0 27 -6 48 -15 56 -8 7 -15 27 -15 46 0 18 -4 36 -10 39 -5 3 -10 26 -10 49 0 27 -6 48 -15 56 -8 7 -15 27 -15 46 0 18 -4 36 -10 39 -5 3 -10 26 -10 50 0 24 -4 47 -10 50 -5 3 -10 26 -10 49 0 27 -6 48 -15 56 -8 7 -15 27 -15 46 0 18 -4 36 -10 39 -5 3 -10 26 -10 50 0 24 -4 47 -10 50 -5 3 -10 23 -10 44 0 22 -6 44 -15 51 -9 7 -15 29 -15 51 0 21 -4 41 -10 44 -5 3 -10 26 -10 49 0 27 -6 48 -15 56 -8 7 -15 27 -15 46 0 18 -4 36 -10 39 -5 3 -10 22 -10 41 0 41 22 54 49 30 10 -9 25 -16 34 -16 9 0 19 -4 22 -10 3 -5 16 -10 29 -10 25 0 82 -25 91 -41 4 -5 13 -9 22 -9 9 0 29 -16 46 -35 16 -19 37 -35 45 -35 9 0 31 -14 48 -31 18 -17 41 -36 52 -43 36 -20 137 -99 157 -123 11 -13 26 -23 33 -23 8 0 30 -16 50 -35 20 -19 43 -35 51 -35 8 0 27 -16 44 -35 16 -19 37 -35 46 -35 10 0 30 -14 47 -31 16 -17 38 -35 49 -40 11 -5 27 -13 35 -18 8 -5 40 -21 70 -36 30 -14 62 -30 70 -35 8 -4 31 -16 50 -24 19 -9 42 -20 50 -25 8 -5 38 -19 65 -32 28 -13 58 -29 67 -37 9 -7 27 -12 40 -10 22 3 23 8 26 87 2 49 -1 88 -8 95 -6 6 -10 65 -10 147 0 109 -3 139 -15 149 -11 9 -15 34 -15 96 0 45 -4 86 -10 89 -5 3 -10 14 -10 24 0 10 -7 24 -15 31 -8 7 -15 21 -15 31 0 11 -5 29 -12 42 -25 48 -28 58 -28 81 0 14 -4 27 -9 31 -12 7 -41 64 -41 80 0 7 -11 21 -25 31 -14 10 -25 26 -25 34 0 9 -16 31 -35 50 -19 19 -35 39 -35 44 0 6 -15 27 -33 46 -18 19 -46 53 -62 75 -17 22 -44 55 -62 74 -18 18 -33 38 -33 45 0 7 -18 30 -40 51 -22 21 -40 44 -40 50 0 16 -54 75 -70 76 -8 0 -28 9 -45 20 -16 10 -37 21 -45 25 -8 3 -23 10 -32 15 -10 5 -23 9 -29 9 -7 0 -27 11 -45 25 -18 14 -39 25 -46 26 -7 0 -26 9 -43 20 -16 10 -37 21 -45 25 -8 3 -23 10 -32 15 -10 5 -23 9 -29 9 -7 0 -27 11 -45 25 -18 14 -39 25 -46 26 -24 1 -73 35 -84 58 -7 13 -17 28 -23 34 -6 6 -11 28 -11 48 0 21 -4 41 -10 44 -5 3 -10 26 -10 50 0 24 -4 47 -10 50 -5 3 -10 23 -10 44 0 22 -6 44 -15 51 -9 7 -15 29 -15 51 0 21 -4 41 -10 44 -5 3 -10 23 -10 44 0 22 -6 44 -15 51 -9 7 -15 29 -15 51 0 21 -4 41 -10 44 -5 3 -10 26 -10 50 0 24 -4 47 -10 50 -5 3 -10 23 -10 44 0 22 -6 44 -15 51 -9 7 -15 29 -15 51 0 21 -4 41 -10 44 -5 3 -10 23 -10 44 0 22 -6 44 -15 51 -9 7 -15 29 -15 51 0 21 -4 41 -10 44 -5 3 -10 10 -10 15 0 14 61 40 96 40 18 0 36 5 39 10 3 6 26 10 49 10 27 0 48 6 56 15 7 8 27 15 46 15 18 0 36 5 39 10 3 6 26 10 49 10 27 0 48 6 56 15 7 8 23 15 36 15 12 0 26 5 29 10 3 6 26 10 50 10 24 0 47 5 50 10 3 6 19 10 34 10 16 0 34 7 41 15 7 9 29 15 51 15 21 0 41 5 44 10 3 6 19 10 34 10 16 0 34 7 41 15 7 8 27 15 46 15 18 0 36 5 39 10 3 6 21 10 40 10 19 0 37 5 40 10 3 6 23 10 44 10 22 0 44 6 51 15 7 8 23 15 36 15 12 0 26 5 29 10 3 6 26 10 49 10 27 0 48 6 56 15 7 8 23 15 36 15 12 0 26 5 29 10 3 6 24 10 46 10 21 0 47 4 57 9 9 5 25 12 35 15 13 4 17 17 17 60 0 30 5 58 10 61 6 3 10 29 10 56 0 38 -4 51 -17 55 -26 9 -72 32 -128 64 -27 16 -57 32 -65 35 -8 4 -23 11 -32 16 -24 12 -105 12 -113 -1 -3 -5 -30 -10 -59 -10 -35 0 -58 -5 -66 -15 -8 -10 -31 -15 -71 -15 -32 0 -61 -4 -64 -10 -3 -5 -30 -10 -59 -10 -35 0 -58 -5 -66 -15 -8 -10 -30 -15 -61 -15 -26 0 -51 -4 -54 -10 -3 -5 -30 -10 -60 -10 -30 0 -57 -4 -60 -10 -3 -6 -35 -10 -69 -10 -44 0 -67 -5 -76 -15 -8 -9 -30 -15 -56 -15 -25 0 -53 -5 -63 -12 -24 -15 -51 9 -51 45 0 14 -7 30 -15 37 -9 8 -15 30 -15 56 0 36 3 44 19 44 10 0 24 7 31 15 7 8 21 15 31 15 11 0 27 4 37 9 9 5 24 12 32 15 8 4 29 15 45 25 17 11 42 20 57 20 15 1 30 6 33 11 3 6 14 10 24 10 10 0 24 7 31 15 7 8 23 15 36 15 12 0 26 5 29 10 3 6 13 10 21 10 9 0 30 11 48 25 18 14 46 25 62 26 16 0 43 9 59 19 58 36 88 50 111 50 13 0 25 4 29 9 8 14 65 41 87 41 10 0 26 4 36 9 9 5 24 12 32 15 8 4 29 15 45 25 17 11 42 20 57 20 15 1 30 5 33 11 7 11 84 47 138 64 9 3 17 14 17 25 0 11 5 23 10 26 6 3 10 17 10 31 0 24 13 55 38 86 8 9 12 27 10 40 -3 20 -9 23 -58 26 -30 2 -59 7 -65 13 -5 5 -57 9 -116 9 -82 0 -109 3 -119 15 -9 11 -33 15 -85 15 -52 0 -76 -4 -85 -15 -7 -8 -27 -15 -46 -15 -18 0 -36 -4 -39 -10 -3 -5 -26 -10 -50 -10 -24 0 -47 -4 -50 -10 -3 -5 -23 -10 -44 -10 -22 0 -44 -6 -51 -15 -7 -9 -29 -15 -51 -15 -21 0 -41 -4 -44 -10 -3 -5 -26 -10 -49 -10 -27 0 -48 -6 -56 -15 -7 -8 -27 -15 -46 -15 -18 0 -36 -4 -39 -10 -3 -5 -26 -10 -50 -10 -24 0 -47 -4 -50 -10 -3 -5 -23 -10 -44 -10 -22 0 -44 -6 -51 -15 -8 -10 -31 -15 -65 -15 -50 0 -55 2 -69 32 -9 17 -16 39 -16 50 0 10 -4 26 -9 36 -5 9 -12 24 -15 32 -4 8 -15 29 -25 45 -11 17 -20 33 -20 37 -1 3 25 18 57 33 31 15 64 31 72 36 8 5 24 13 35 18 12 5 27 16 34 25 8 9 30 23 50 32 20 9 44 20 53 25 10 5 24 9 31 9 8 0 23 11 33 25 10 14 26 25 36 25 9 0 19 4 22 9 8 12 106 61 121 61 7 0 20 10 31 21 10 12 28 25 39 30 11 5 38 20 60 34 22 14 49 30 60 35 11 6 34 19 50 29 17 11 37 20 46 20 9 1 25 12 35 26 10 14 26 25 36 25 9 0 20 5 23 10 3 6 14 10 24 10 21 0 51 40 51 68 0 11 7 25 16 32 10 9 14 26 12 49 l-3 36 -204 3 c-130 1 -208 -1 -215 -8 -5 -5 -29 -10 -52 -10 -25 0 -47 -6 -54 -15 -7 -8 -27 -15 -46 -15 -18 0 -36 -4 -39 -10 -3 -5 -26 -10 -50 -10 -24 0 -47 -4 -50 -10 -3 -5 -23 -10 -44 -10 -22 0 -44 -6 -51 -15 -7 -9 -29 -15 -51 -15 -21 0 -41 -4 -44 -10 -3 -5 -23 -10 -44 -10 -22 0 -44 -6 -51 -15 -7 -9 -29 -15 -51 -15 -21 0 -41 -4 -44 -10 -10 -16 -45 -11 -52 8 -4 9 -22 32 -40 50 -18 19 -33 39 -33 46 0 7 -18 30 -40 51 -22 21 -40 44 -40 50 0 5 -16 28 -35 50 -19 22 -35 45 -35 51 0 6 -16 25 -35 41 -19 17 -35 38 -35 47 0 17 -108 126 -125 126 -6 0 -26 16 -45 35 -19 19 -40 35 -47 35 -7 0 -29 16 -49 35 -19 19 -41 35 -47 35 -7 0 -34 23 -61 50 -27 28 -56 50 -64 50 -8 0 -28 16 -45 35 -16 19 -37 35 -45 35 -9 0 -31 14 -48 31 -18 17 -41 36 -52 43 -11 6 -45 30 -75 54 -31 23 -62 42 -70 42 -8 0 -22 9 -32 20 -11 12 -33 27 -49 34 -17 8 -47 21 -67 29 -19 9 -43 25 -54 37 -10 11 -24 20 -30 20 -7 0 -18 7 -25 15 -7 8 -21 15 -31 15 -11 0 -19 4 -19 9 0 5 -15 16 -32 25 -18 9 -40 21 -48 25 -8 5 -31 16 -51 25 -19 8 -43 24 -54 36 -10 11 -23 20 -30 20 -16 0 -73 29 -80 41 -4 5 -35 9 -70 9 -35 0 -67 5 -70 10 -4 6 -61 10 -139 10 -107 0 -136 3 -146 15 -10 12 -45 15 -196 15 -111 0 -185 4 -189 10 -4 6 -62 10 -140 10 -78 0 -136 -4 -140 -10z m1349 -3642 c9 -17 16 -56 16 -89 0 -32 5 -61 10 -64 6 -3 10 -30 10 -59 0 -35 5 -58 15 -66 10 -8 15 -31 15 -71 0 -32 5 -61 10 -64 20 -13 11 -55 -15 -65 -13 -5 -36 -23 -51 -40 -15 -16 -33 -30 -40 -30 -17 0 -94 -77 -94 -94 0 -7 -11 -23 -25 -36 -20 -19 -25 -33 -25 -71 0 -26 5 -51 10 -54 13 -8 13 -155 1 -155 -5 0 -17 14 -25 30 -9 17 -23 43 -31 58 -8 16 -24 37 -35 47 -11 10 -20 24 -20 32 0 20 -71 114 -94 124 -12 5 -28 13 -36 18 -8 5 -26 13 -40 19 -44 18 -94 42 -145 72 -27 16 -57 32 -65 36 -74 31 -80 36 -80 59 0 13 -4 27 -10 30 -5 3 -10 30 -10 59 0 35 -5 58 -15 66 -10 8 -15 30 -15 61 0 26 -4 51 -10 54 -5 3 -10 30 -10 59 0 28 -5 57 -11 63 -21 21 2 33 61 33 32 0 62 5 65 10 4 6 63 10 144 10 111 0 141 3 151 15 10 12 39 15 146 15 78 0 135 4 139 10 3 6 26 10 50 10 39 0 45 -3 59 -32z m501 -628 c3 -5 16 -10 29 -10 28 0 79 -24 97 -46 7 -9 23 -20 36 -25 26 -10 92 -96 93 -120 0 -9 7 -22 15 -29 8 -7 15 -23 15 -36 0 -12 5 -26 10 -29 6 -3 10 -44 10 -90 0 -46 -4 -87 -10 -90 -5 -3 -10 -17 -10 -29 0 -13 -7 -29 -15 -36 -8 -7 -15 -19 -15 -27 0 -8 -16 -31 -35 -51 -19 -20 -35 -43 -35 -50 0 -7 -11 -17 -25 -22 -13 -5 -36 -23 -51 -40 -18 -20 -37 -30 -55 -30 -15 0 -31 -4 -34 -10 -3 -5 -41 -10 -84 -10 -79 0 -92 4 -176 56 -22 13 -47 27 -55 31 -27 11 -50 36 -50 53 0 9 -9 25 -20 35 -26 23 -50 72 -50 100 0 13 -7 28 -15 35 -11 9 -15 33 -15 85 0 52 4 76 15 85 8 7 15 23 15 35 0 24 12 51 45 100 11 17 25 39 31 49 6 11 19 24 30 30 10 6 40 26 65 44 28 19 59 32 77 32 17 0 34 5 37 10 3 6 33 10 65 10 32 0 62 -4 65 -10z m-1180 -120 c3 -5 20 -10 37 -10 18 0 46 -11 66 -27 56 -42 132 -121 132 -137 0 -7 7 -19 15 -26 8 -7 15 -23 15 -36 0 -12 5 -26 10 -29 6 -3 10 -35 10 -70 0 -35 -4 -67 -10 -70 -5 -3 -10 -17 -10 -29 0 -13 -7 -29 -15 -36 -8 -7 -15 -20 -15 -29 -1 -37 -152 -161 -197 -161 -17 0 -36 -7 -43 -15 -8 -10 -31 -15 -70 -15 -39 0 -62 5 -70 15 -7 8 -26 15 -43 15 -45 0 -196 124 -197 162 0 9 -4 19 -9 23 -54 33 -54 247 0 280 5 4 9 13 9 21 0 16 76 94 132 137 20 16 48 27 66 27 17 0 34 5 37 10 3 6 37 10 75 10 38 0 72 -4 75 -10z m553 -248 c2 -7 -2 -10 -12 -6 -9 3 -16 11 -16 16 0 13 23 5 28 -10z"/>
 <path d="M4786 2425 c-35 -53 -9 -115 48 -115 44 0 76 27 76 64 0 67 -89 104 -124 51z"/>
 <path d="M3607 2402 c-24 -26 -23 -104 1 -125 25 -23 91 -23 98 1 3 9 10 25 15 34 15 29 10 74 -9 91 -25 23 -85 22 -105 -1z"/>
 </g>

</svg>