<?xml version="1.0" encoding="UTF-8" ?>
<!DOCTYPE svg PUBLIC "-//W3C//DTD SVG 1.1//EN" "http://www.w3.org/Graphics/SVG/1.1/DTD/svg11.dtd">
<svg width="336pt" height="172pt" viewBox="0 0 336 172" version="1.1" xmlns="http://www.w3.org/2000/svg">
<path fill="#000000" opacity="1.00" d=" M 191.71 0.00 L 193.52 0.00 C 195.70 4.08 209.75 8.14 202.38 0.00 L 203.29 0.00 C 206.92 1.90 218.37 10.86 215.17 1.02 C 226.24 4.97 233.13 14.67 243.94 18.07 C 268.05 20.45 281.03 41.07 299.56 53.43 C 312.91 63.46 321.29 78.55 334.38 88.83 C 336.90 91.98 329.72 95.52 336.00 95.93 L 336.00 97.69 C 309.93 122.62 272.85 131.44 238.01 135.84 C 227.97 150.59 213.32 161.84 198.70 172.00 L 195.38 172.00 C 187.41 167.81 193.65 158.62 195.52 152.53 C 197.84 143.76 207.80 141.00 213.40 136.12 C 185.40 138.57 156.45 139.10 129.17 130.73 C 122.01 125.90 112.92 150.26 116.15 134.30 C 107.62 138.77 99.90 145.86 90.10 147.98 C 93.04 141.94 102.28 139.83 103.01 132.10 C 90.05 134.92 75.31 135.12 65.23 124.86 C 59.53 121.30 55.68 109.58 64.02 107.01 C 70.77 103.25 78.64 105.39 85.88 106.14 C 75.02 97.33 56.71 100.10 43.69 100.94 C 33.49 106.53 20.49 111.76 8.94 111.37 C -1.39 92.29 -2.51 66.79 6.43 47.03 C 28.75 47.76 49.39 63.87 72.17 58.03 C 68.37 54.28 60.40 56.45 56.47 52.14 C 52.56 38.62 66.39 29.39 77.08 25.09 C 95.66 17.13 118.56 10.65 137.12 21.84 C 143.65 20.39 130.85 8.97 139.23 13.77 C 142.51 18.43 151.66 16.29 143.62 11.43 C 134.22 2.46 160.76 19.71 152.72 9.34 C 144.04 -1.40 169.55 18.12 165.29 6.95 C 158.12 -2.29 180.71 16.57 175.00 5.99 C 170.09 -4.01 187.82 13.29 186.26 5.88 C 180.83 -0.69 192.64 6.71 195.18 7.63 C 195.28 4.66 193.33 2.28 191.71 0.00 Z" />
</svg>
