<!DOCTYPE svg PUBLIC "-//W3C//DTD SVG 20010904//EN" "http://www.w3.org/TR/2001/REC-SVG-20010904/DTD/svg10.dtd">
<svg version="1.0" xmlns="http://www.w3.org/2000/svg" width="517px" height="357px" viewBox="0 0 5170 3570" preserveAspectRatio="xMidYMid meet">
<g id="layer1" fill="#000000" stroke="none">
 <path d="M656 3322 c-3 -5 83 -147 190 -317 107 -169 193 -309 191 -311 -2 -3 -152 90 -333 206 -180 115 -332 206 -336 202 -5 -5 3 -114 17 -243 l25 -234 135 -305 135 -305 171 -217 170 -217 127 -40 c70 -22 183 -57 250 -78 l124 -38 -6 -85 c-3 -47 -8 -128 -11 -180 l-6 -95 118 -184 118 -184 235 -178 c129 -98 238 -175 243 -170 4 4 -4 110 -18 236 -14 125 -21 233 -17 239 5 6 48 63 97 126 49 63 89 116 90 118 1 1 118 -14 261 -33 l259 -35 285 53 c157 30 286 53 287 53 1 -1 -5 -104 -13 -229 -14 -217 -14 -229 3 -250 10 -13 92 -112 183 -221 l165 -198 159 -80 c99 -49 162 -76 168 -70 6 6 5 194 -1 498 -6 269 -11 501 -11 515 0 24 9 29 118 69 64 24 131 50 147 58 30 15 589 366 613 385 10 8 0 24 -45 70 -49 50 -105 100 -319 289 -13 12 -80 30 -195 53 l-174 35 -300 -59 c-226 -45 -303 -56 -311 -48 -6 7 -73 109 -148 227 l-137 215 -267 273 -267 273 -414 174 -414 175 -663 35 c-774 41 -672 37 -678 27z m323 -828 c89 -52 117 -220 56 -332 -68 -125 -195 -103 -240 42 -31 102 -13 197 50 262 46 49 85 57 134 28z"/>
 <path d="M892 2404 c-29 -20 -52 -66 -52 -104 0 -58 48 -120 93 -120 28 0 75 53 82 93 10 50 -1 84 -35 118 -32 33 -55 36 -88 13z"/>
 </g>

</svg>