<?xml version="1.0" encoding="utf-8"?>
<!DOCTYPE svg PUBLIC "-//W3C//DTD SVG 1.1//EN" "http://www.w3.org/Graphics/SVG/1.1/DTD/svg11.dtd">
<svg version="1.1" id="Layer_1" xmlns="http://www.w3.org/2000/svg" xmlns:xlink="http://www.w3.org/1999/xlink" x="0px" y="0px"
	 viewBox="0 0 819.3749 1795.752" enable-background="new 0 0 819.3749 1795.752" xml:space="preserve">
<g>
	<path d="M505.1336,1470.292c-3.7457-19.9198-2.8326-41.141-14.8445-59.0219c-0.4524-0.6735-0.6351-1.5326-0.9193-2.314
		c-5.5122-15.1544-11.1052-30.4041-17.877-44.9144c-12.7914-27.4083-26.4058-54.4611-44.4886-79.0988
		c-37.3971-50.9529-64.9443-106.7843-81.3333-168.0518c-11.6152-43.4218-13.4133-87.287-8.0841-131.6677
		c0.0793-0.6599,0.2804-1.3046,0.3743-1.9635c1.5726-11.0371,5.4348-21.6578,5.97-32.8841
		c0.245-5.1374,0.478-10.1826,2.0083-15.2577c4.0339-13.3774,9.5255-26.2407,13.8309-39.4677
		c10.641-32.691,25.7601-63.1362,43.7755-92.2233c7.8943-12.7458,15.8958-25.4102,23.0594-38.5878
		c8.6327-15.8799,18.5109-30.8309,31.8019-43.3231c5.1213-4.8135,9.1144-10.5848,12.5431-16.7357
		c3.3247-5.9641,6.4562-12.1063,11.0995-17.1689c2.0685-2.2552,4.2133-4.4428,6.3315-6.6503
		c0.4075-0.6578,0.8342-1.3053,1.3376-1.9182c0.24-0.2922,0.4995-0.4987,0.7673-0.6394
		c2.9296-5.4787,6.4457-11.2807,10.2789-15.8961c2.5966-3.1263,5.7755-5.6235,8.6857-8.4448
		c2.4519-2.3771,4.1429-5.2887,6.2681-7.9364c0.1741-0.2168,0.3612-0.3757,0.5525-0.5098c0.551-0.7566,1.1151-1.4976,1.7037-2.2114
		c13.9557-16.9233,27.7074-34.0288,41.7059-50.9063c11.8756-14.3177,23.4849-29.2134,33.458-45.1462
		c4.9458-7.9012,9.8374-15.8275,14.4973-23.8938c-0.0267-0.4102,0.0443-0.8611,0.2441-1.3486
		c2.0273-4.9453,5.217-9.1145,7.5839-13.8652c1.6342-3.28,2.5164-6.8121,4.032-10.101c1.2438-3.9667,3.3433-7.6168,5.7217-11.118
		c4.4471-6.5466,7.5969-13.6559,10.0162-21.134c2.9263-9.0447,4.8584-18.3315,6.6378-27.6511
		c7.2756-38.1066,7.0902-75.9197-5.6224-112.9558c-7.7771-22.6572-17.0095-45.2666-35.1221-61.457
		c-49.8403-44.5517-106.7479-56.9806-170.1177-32.9883c-23.0021,8.7087-42.2239,22.5967-54.551,44.6353
		c-2.5571,4.5715-4.4618,9.3196-4.2866,14.675c0.1262,3.8586-0.0294,8.291,4.126,9.9692c4.3876,1.7721,7.2112-1.8705,9.4194-4.9177
		c4.6626-6.4337,10.9465-10.3613,18.4673-11.917c37.4502-7.7466,71.4437,0.1053,101.4647,23.7881
		c15.337,12.0989,24.9083,28.0745,28.2993,47.4307c2.2107,12.6188,2.4313,25.5208,5.1598,38.0881
		c0.3738,1.7212,0.2202,3.729-0.2703,5.4373c-3.0752,10.7119-5.6746,21.6204-10.1133,31.8545
		c-11.7168,27.0154-33.2261,43.6223-59.7205,54.3844c-22.8049,9.2635-46.4521,12.6718-70.9951,8.6991
		c-6.9268-1.1211-13.9893-1.0146-20.7911,1.1567c-10.4266,3.3284-13.4213,12.3057-7.1152,21.1619
		c2.6315,3.6958,5.7023,7.1733,9.7357,9.1975c11.0266,5.5339,15.1937,15.2334,17.1274,26.5415
		c3.7971,22.2043-6.0325,40.4019-26.7094,49.2634c-5.0582,2.1677-10.3719,3.5652-15.6061,5.22
		c-8.2994,2.624-16.3872,2.2421-24.4755-0.7334c-5.464-2.0099-10.9199-4.0608-16.4628-5.8329
		c-6.6713-2.1329-13.4116-2.6068-19.9988,0.4392c-5.2888,2.4457-6.4823,5.6349-4.1501,10.8794
		c2.4353,5.4762,6.7856,9.4164,10.9172,13.5275c5.5181,5.4905,9.989,11.6565,11.8412,19.3499
		c3.6123,15.0037-1.4677,27.928-11.2406,38.6987c-21.6301,23.8384-49.0999,31.1513-80.2993,26.1689
		c-6.5999-1.054-13.1555-2.1695-19.8571-1.605c-5.4669,0.4605-10.4545,2.2224-14.3195,6.2663
		c-4.876,5.1017-4.1512,9.4474,2.0613,12.8173c4.8868,2.6508,10.2222,4.1338,15.6577,4.9177
		c14.8618,2.1434,23.9995,11.2931,30.2657,24.1077c5.0469,10.3207,7.145,21.3771,8.3367,32.7134
		c3.3478,31.8489-10.6169,58.6598-38.6969,74.0448c-12.4702,6.8325-26.0139,9.9857-39.9271,12.0389
		c-5.6195,0.8293-11.1393,2.233-15.7224,5.8826c-3.1255,2.4888-4.3889,5.7028-3.4646,9.7476
		c0.8973,3.9271,3.8365,5.2153,7.2465,5.8461c2.1159,0.3914,4.3068,0.7068,6.4421,0.6039
		c7.9043-0.3811,15.1141,1.8929,22.0797,5.322c8.7275,4.2964,16.4028,10.1157,24.052,16.0577
		c10.777,8.3712,16.3378,19.5124,18.3696,32.6687c0.7616,4.9311,1.3999,9.9113,1.6243,14.8903
		c1.09,24.1747-6.5458,44.8571-24.9282,61.1214c-9.1022,8.0536-19.6541,13.5837-30.925,17.9154
		c-5.291,2.0333-10.6161,4.1631-14.0848,9.0361c-4.7332,6.6497-1.9163,13.014,6.1572,14.1108
		c5.4454,0.7399,10.5676-0.7075,15.6948-2.2034c1.713-0.4998,3.2987-1.3263,5.2614-0.3223c5.4735,2.8,11.4634,3.3685,17.4932,3.4355
		c12.9888,0.1444,24.5465,4.4447,34.6329,12.4104c17.1422,13.5382,28.5053,30.9548,31.6043,52.688
		c2.8152,19.7427-1.5992,37.4762-18.6491,50.2446c-2.5002,1.8724-4.7517,4.2394-6.629,6.744
		c-3.0404,4.0564-7.3854,8.4863-3.6326,13.7927c3.6251,5.1261,9.0916,2.5004,13.8003,1.1002
		c4.312-1.2821,8.567-3.3583,13.1237-2.1373c10.4312,2.795,21.2805,4.2222,31.3,8.3187
		c39.24,16.0439,47.7111,64.5442,32.5736,91.6404c-2.9185,5.224-5.5559,10.5466-6.7094,16.5757
		c-0.8188,4.2803,0.4707,5.0249,4.4895,4.7229c24.8867-1.8699,46.4976,6.2334,65.5059,22.0067
		c7.7314,6.4155,14.7185,13.5796,20.6843,21.6271c16.8451,22.7235,32.4636,46.3837,38.5886,74.4026
		c9.4552,43.2548,9.3125,86.6837-2.603,129.58c-7.652,27.5474-16.9872,54.9063-35.49,77.0701
		c-45.5607,54.5756-104.9526,80.2549-175.7612,79.178c-25.775-0.3921-49.8525-9.3424-74.1223-17.2325
		c-32.8903-10.6925-56.7455-31.1604-72.0181-62.109c-8.6059-17.439-19.0673-34.0717-20.613-54.2024
		c-1.0853-14.1345-1.5056-28.2731-1.2713-42.442c0.2993-18.1056,4.2264-35.2111,12.8088-51.3207
		c20.9463-39.3173,51.6189-63.1714,97.9992-61.6536c24.6057,0.8051,46.7645,8.6259,64.5225,26.4009
		c14.1563,14.1698,19.8357,32.4066,23.6012,51.4263c1.2053,6.0879,1.6115,12.2435,0.3654,18.3672
		c-2.5544,12.552-11.168,20.8153-20.3303,28.7906c-11.9359,10.3896-24.6104,14.1716-39.2903,5.8059
		c-2.1094-1.2021-4.7345-1.4973-7.1184-2.2205c-2.1838-0.6625-4.3187-0.241-6.3887,0.423c-4.795,1.538-6.6342,5.2555-4.4211,9.7736
		c3.1201,6.3701,7.9653,11.2363,14.9207,13.1357c11.5581,3.1561,23.2924,3.7876,35.1022,1.1774
		c14.6862-3.246,24.475-14.3481,36.1117-22.4788c0.7485-0.5231,1.1808-1.6135,1.5649-2.5226
		c1.3898-3.2896,3.5535-6.0144,6.0571-8.4888c7.0953-7.0126,11.3989-15.5406,13.4089-25.2111
		c4.0188-19.3365,4.2305-38.7567-0.1343-58.0232c-9.3956-41.4729-33.6799-68.7909-76.0845-78.0377
		c-28.4016-6.1936-56.8734-5.165-85.3416,0.1882c-13.649,2.5667-24.8635,10.0769-36.6095,16.641
		c-13.3016,7.4332-25.3331,16.2839-36.1356,27.2411c-20.4412,20.7334-34.9194,44.2009-39.7206,73.3866
		c-4.5292,27.5319-5.4263,54.9906-0.9371,82.5464c6.0283,37.0034,19.8403,70.6837,43.0701,100.3378
		c21.0098,26.8201,47.875,46.0223,78.3247,60.6158c12.5926,6.035,24.8035,13.2511,38.8572,15.3241
		c10.3608,1.5284,21.0127,1.2515,31.2963,3.1041c27.1156,4.8851,54.0668,6.239,81.4125,1.3822
		c24.4993-4.3512,48.8953-8.5516,71.1399-20.4937c14.8025-7.9468,31.3433-13.3225,44.1563-24.1666
		c24.3708-20.6261,45.2661-44.7551,61.9253-72.0579c16.6257-27.2479,24.8535-58.0005,34.1328-88.2211
		c1.8245-5.9425,2.5563-12.2273,1.2595-18.2954c-1.6632-7.7821-1.7692-15.3545-0.7731-23.2616
		C509.7121,1510.7128,508.8969,1490.3048,505.1336,1470.292z"/>
	<path d="M778.056,391.6398c6.6095-8.2278,12.6479-16.2267,23.0983-19.5927c1.8645-0.6006,3.6052-1.7302,5.2505-2.8416
		c8.1554-5.5079,8.0182-11.8414-0.288-17.1189c-6.0342-3.834-12.8444-5.4714-19.7213-6.7314
		c-11.4766-2.103-21.5138-6.8884-29.7578-15.2073c-14.609-14.7417-27.7115-30.7664-37.6906-48.9546
		c-9.1504-16.678-19.45-32.5896-29.5665-48.65c-11.4644-18.1998-26.2838-33.5035-41.2051-48.7477
		c-8.4952-8.6792-18.4945-15.2382-29.3921-20.4382c-12.7693-6.093-25.7014-11.8479-38.4193-18.0442
		c-18.2916-8.9119-35.1556-19.7356-47.1578-36.7756c-15.7285-22.3306-13.0291-48.6721,6.932-67.2017
		c2.0775-1.9285,4.2067-3.8594,5.2285-6.5979c1.5013-4.0237-0.1666-6.4004-4.4598-6.3303c-3.1619,0.0515-6.3333,0.1559-9.4792,0.457
		c-15.074,1.4436-29.5659,0.2198-42.8689-8.0645c-4.2205-2.6283-9.0415-4.2605-13.9897-5.1851
		c-1.9055-0.356-4.0933-1.0251-5.5659,0.9213c-1.3508,1.7853-0.1094,3.5773,0.6422,5.1438c1.2212,2.5453,2.7639,4.9369,4.182,7.387
		c1.1299,1.9526,1.769,3.8871,0.5522,6.1068c-1.9128,3.4888-1.5317,7.0757-0.082,10.6083
		c1.5336,3.7369,2.4622,7.6532,2.7115,11.6321c0.6703,10.6931,3.0012,21.0845,5.2959,31.4902
		c8.4315,38.2352,24.6454,72.177,53.0824,99.9618c18.3679,17.9468,37.6809,34.8123,56.5952,52.1345
		c24.9037,22.8074,44.8184,48.9223,53.2867,82.2434c11.9618,47.0664,11.1429,93.9968-3.0171,140.5404
		c-4.3184,14.1947-10.3475,27.6548-18.2351,40.2225c-0.9163,2.522-1.7056,5.0994-3.017,7.4735
		c-1.8,3.2585-3.9603,6.3414-5.6759,9.6498c-1.0104,2.9724-2.4913,5.7712-4.0018,8.5347
		c-9.9407,18.188-22.2675,34.7675-35.2029,50.8579c-13.7678,17.126-27.9901,33.8903-42.1948,50.6592
		c-4.739,5.5947-9.4309,11.179-13.5173,17.2819c-0.9583,1.4313-1.9684,2.8401-3.1666,4.1351
		c-1.6708,2.2302-3.2817,4.3901-5.4457,6.3931c-0.3073,0.2844-0.6194,0.5656-0.9326,0.8461
		c-0.6257,0.881-1.239,1.6034-2.0045,2.2681c-0.2379,0.3622-0.4823,0.7186-0.7372,1.0664
		c-0.6238,1.0255-1.6167,2.0214-2.2799,2.8125c-1.6908,2.017-3.5031,3.9269-5.276,5.8708
		c-2.5154,3.8358-4.9424,7.8172-6.9763,11.7917c-0.1436,0.2806-0.3149,0.5067-0.5034,0.6912
		c-0.4609,0.8923-1.0282,1.7353-1.6216,2.5172c-0.364,0.4796-0.8242,0.851-1.3322,1.0708c-0.9821,1.199-2.1698,2.2047-2.9178,3.5958
		c-0.0576,0.1072-0.1266,0.1917-0.1914,0.2844c-5.1361,7.9611-10.7231,15.6168-16.7117,22.9373
		c-34.6755,42.3882-61.8278,89.4949-87.1868,137.7525c-1.1521,2.1922-2.2712,4.5493-2.6892,6.9542
		c-1.792,10.31-6.1089,19.6434-10.4502,29.0307c-5.469,11.8259-12.7993,22.7524-13.5342,36.6507
		c-0.6205,11.738-5.3976,22.9454-7.199,34.6508c-4.5542,29.593-5.1267,59.3608-4.266,89.2018
		c0.7128,24.7129,3.069,49.2224,10.4396,72.957c4.9336,15.8872,10.465,31.5879,15.5258,47.437
		c3.3126,10.3741,7.7889,20.1584,13.4513,29.4453c5.3735,8.8134,10.951,17.5349,14.8866,27.1278
		c2.8088,6.8463,6.5482,13.1138,11.2257,18.8002c12.8274,15.5936,24.1714,32.261,35.4412,48.9725
		c4.4574,6.6097,9.925,12.8967,12.1152,20.5834c2.5281,8.8735,6.7891,16.7308,10.5781,24.9913
		c7.9165,17.2585,17.6929,33.6927,24.4941,51.3597c13.6798,35.5347,20.6641,72.5231,20.0791,110.7379
		c0,7.4974-0.0365,14.9952,0.0111,22.4923c0.0414,6.5342,0.9669,12.953,3.1312,19.131c0.8074,2.3054,1.5806,5.1221,4.655,5.1943
		c2.8751,0.0674,4.1782-2.3975,5.4536-4.5616c0.5037-0.855,0.988-1.7695,1.2334-2.7208c2.281-8.8499,5.531-17.4663,6.7515-26.5699
		c1.7563-13.1027,0.9231-26.2926,0.9496-39.4429c0.0507-25.1962-1.7902-50.2395-6.5797-75.0321
		c-7.2046-37.2935-21.1206-72.0636-38.9319-105.4518c-14.7534-27.6561-26.9113-56.0773-27.4122-88.3282
		c-0.1696-10.9229,1.4503-20.135,10.7468-26.8208c1.4799-1.0643,2.7988-2.3645,4.1302-3.6213
		c9.5671-9.03,8.0668-17.1365-4.3259-21.7111c-5.4375-2.0072-11.1733-3.2688-16.8413-4.5757
		c-10.4929-2.4192-17.8875-8.3124-22.1194-18.3315c-2.5227-5.9725-5.2407-11.9259-10.3003-16.3499
		c-0.751-0.6569-1.5415-1.2604-0.7585-2.4672c3.1663-4.88,1.442-9.9407,0.5557-15.0022
		c-2.2607-12.9102-2.5452-25.668,5.1416-37.1063c6.9463-10.3367,16.2922-17.9363,27.917-22.6349
		c2.616-1.0574,5.2664-2.1223,7.6914-3.5417c5.9568-3.4861,6.6757-7.7001,2.4048-13.1905c-1.0183-1.3092-2.1382-2.5862-3.403-3.6503
		c-18.808-15.827-26.0151-36.2216-22.9464-60.2092c2.6226-20.5012,9.8416-39.1027,25.8367-53.1734
		c11.9333-10.4977,25.1228-19.2155,39.3533-26.3193c12.3198-6.1501,24.9204-10.1375,38.9424-6.1523
		c4.6121,1.3107,9.5493,1.4579,14.4028,1.0692c8.0361-0.6436,10.9705-4.5125,9.2603-12.4018
		c-1.0334-4.7675-3.4896-8.9774-5.6575-13.2874c-2.2607-4.4948-3.9805-9.1359-4.348-14.2278
		c-1.3843-19.1742,4.7621-35.765,17.3661-50.0213c16.4517-18.608,37.1802-31.137,59.6459-40.9799
		c12.0946-5.2989,24.8746-7.3516,38.0776-5.9952c5.9932,0.6156,11.9446,1.4471,16.0468,6.7716
		c1.6997,2.2061,4.1461,2.4374,6.8108,1.911c12.5951-2.4882,16.6086-10.5201,10.7888-22.0093
		c-3.2552-6.4265-7.6943-12.1021-12.2856-17.5885c-9.3412-11.1622-12.2911-24.3669-11.6422-38.2946
		c1.4589-31.3141,14.8325-57.1207,38.5878-77.2452c16.5994-14.0625,35.6089-21.9258,58.0686-18.7415
		c5.9083,0.8378,11.9039,1.6372,17.9285,1.0247c9.8984-1.0066,13.2625-8.4194,7.5173-16.6373
		c-2.313-3.3085-5.3075-5.9838-8.5873-8.2997c-4.762-3.3624-9.6666-6.5251-14.3909-9.9385
		c-11.5153-8.3196-20.3263-18.7-24.1711-32.6908c-2.4253-8.8251-4.7813-17.6705-7.046-26.538
		c-1.9225-7.5269-2.0028-15.03-0.4429-22.7438C755.0814,431.4256,763.1194,410.2335,778.056,391.6398z"/>
	<path d="M30.8713,367.0518c7.8826-11.6366,18.5656-19.9568,30.9578-26.1577c10.2679-5.1379,20.6871-9.9806,31.1132-14.7939
		c23.4009-10.8032,46.1121-23.215,71.1358-30.2363c11.3739-3.1915,22.8079-6.2949,33.9248-10.2524
		c27.7905-9.8933,56.2461-13.1923,85.5464-10.2501c23.2981,2.3395,44.505,9.5509,62.1177,25.6016
		c1.1025,1.0048,2.269,1.9851,3.5427,2.7483c4.3058,2.5798,7.5042,1.7822,10.1345-2.4706
		c2.0442-3.3054,2.9326-7.0504,3.9155-10.7493c7.0084-26.3718,22.2377-47.21,45.467-60.8353
		c34.452-20.208,72.2026-23.6216,111.1777-17.7334c7.833,1.1833,14.0117,6.0126,21.1873,8.5736
		c2.2081,0.7882,4.7349,1.7803,6.5221-0.3618c1.7688-2.1199,1.0957-4.6904-0.0333-7.0618
		c-1.3845-2.9082-3.4094-5.3606-5.7139-7.5205c-3.6433-3.4148-7.2234-6.9832-11.2751-9.8596
		c-10.8591-7.7087-18.5371-18.041-25.34-29.2224c-6.6776-10.9757-11.4994-22.9144-17.8406-34.0554
		c-7.1775-12.6103-13.0295-25.3281-15.3312-40.1782c-2.9919-19.3054-8.332-38.2457-9.8716-57.8652
		c-0.4153-5.2916-2.2384-10.3518-7.5349-14.541c-0.111,2.3059-0.1781,3.5935-0.2341,4.8815
		c-1.9858,45.7039-33.3242,81.8984-77.9016,90.2709c-12.3605,2.3215-23.5101,1.0365-32.8383-8.2944
		c-1.8694-1.8699-4.0474-3.5103-6.3046-4.8955c-3.7634-2.3093-6.0613-5.4806-7.304-9.7035c-0.9819-3.337-2.2813-6.6239-5.2158-8.907
		c-4.4933-3.4958-8.7546-2.2836-10.5081,3.0787c-0.4124,1.2615-0.7068,2.5789-0.8958,3.8934
		c-2.9175,20.3143-10.5123,38.7931-21.8988,55.7731c-27.9364,41.6599-64.56,73.5929-108.3751,97.7563
		c-30.9694,17.0794-63.7036,30.2938-95.694,45.1436c-17.5262,8.1356-35.271,14.6842-55.1414,13.5581
		c-8.5136-0.4824-14.373,4.1589-17.3823,12.3708c-3.1326,8.5486-4.1845,17.4517-5.0922,26.3962
		c-1.0235,10.0856-3.6503,20.0283-2.7693,30.2847c0.2919,3.3977,0.8599,6.8704,4.3156,8.4636
		c3.6003,1.6599,6.8248,0.0088,9.7169-2.1743C25.051,374.7822,28.162,371.0513,30.8713,367.0518z M330.0047,165.2579
		c15.6942-9.189,31.3624-1.7759,36.1056,17.083c4.4906,17.8545-4.6482,29.3362-24.0679,29.2959
		c-1.9163-0.043-4.5776-0.073-7.1602-0.8972c-9.2684-2.958-16.6379-8.074-18.5032-18.2618
		C314.7028,183.3216,321.605,170.1759,330.0047,165.2579z"/>
	<circle cx="339.9299" cy="187.3167" r="10.9375"/>
</g>
</svg>
